<mxfile host="app.diagrams.net" modified="2024-04-29T02:08:34.192Z" agent="Mozilla/5.0 (Windows NT 10.0; Win64; x64) AppleWebKit/537.36 (KHTML, like Gecko) Chrome/124.0.0.0 Safari/537.36 Edg/124.0.0.0" etag="CLE3h_ZBIS97yHySlhBL" version="22.0.0" type="device">
  <diagram name="Page-1" id="baQeJwEwdhWI1fe-KgUi">
    <mxGraphModel dx="1176" dy="645" grid="1" gridSize="10" guides="1" tooltips="1" connect="1" arrows="1" fold="1" page="1" pageScale="1" pageWidth="850" pageHeight="1100" background="none" math="0" shadow="0">
      <root>
        <mxCell id="0" />
        <mxCell id="1" parent="0" />
        <mxCell id="ql0hSR1luq9MQlSDu55J-5" style="edgeStyle=orthogonalEdgeStyle;rounded=0;orthogonalLoop=1;jettySize=auto;html=1;exitX=1;exitY=0.5;exitDx=0;exitDy=0;entryX=0;entryY=0.5;entryDx=0;entryDy=0;" edge="1" parent="1" target="ql0hSR1luq9MQlSDu55J-4">
          <mxGeometry relative="1" as="geometry">
            <mxPoint x="170" y="179" as="sourcePoint" />
          </mxGeometry>
        </mxCell>
        <mxCell id="ql0hSR1luq9MQlSDu55J-3" value="&lt;b&gt;&lt;font style=&quot;font-size: 15px;&quot;&gt;Collect Player Statistics from Howstat.com using Excel Web Connection&lt;/font&gt;&lt;/b&gt;" style="rounded=0;whiteSpace=wrap;html=1;fillColor=#dae8fc;strokeColor=#6c8ebf;" vertex="1" parent="1">
          <mxGeometry x="10" y="119" width="160" height="120" as="geometry" />
        </mxCell>
        <mxCell id="ql0hSR1luq9MQlSDu55J-9" style="edgeStyle=orthogonalEdgeStyle;rounded=0;orthogonalLoop=1;jettySize=auto;html=1;exitX=1;exitY=0.5;exitDx=0;exitDy=0;entryX=0;entryY=0.5;entryDx=0;entryDy=0;" edge="1" parent="1" source="ql0hSR1luq9MQlSDu55J-4" target="ql0hSR1luq9MQlSDu55J-7">
          <mxGeometry relative="1" as="geometry" />
        </mxCell>
        <mxCell id="ql0hSR1luq9MQlSDu55J-4" value="&lt;b&gt;&lt;font style=&quot;font-size: 15px;&quot;&gt;Import Excel tables in Jupyter notebook as Dataframe&lt;/font&gt;&lt;/b&gt;" style="rounded=0;whiteSpace=wrap;html=1;fillColor=#ffe6cc;strokeColor=#d79b00;" vertex="1" parent="1">
          <mxGeometry x="220" y="119" width="170" height="120" as="geometry" />
        </mxCell>
        <mxCell id="ql0hSR1luq9MQlSDu55J-11" style="edgeStyle=orthogonalEdgeStyle;rounded=0;orthogonalLoop=1;jettySize=auto;html=1;exitX=1;exitY=0.5;exitDx=0;exitDy=0;" edge="1" parent="1" source="ql0hSR1luq9MQlSDu55J-7" target="ql0hSR1luq9MQlSDu55J-10">
          <mxGeometry relative="1" as="geometry" />
        </mxCell>
        <mxCell id="ql0hSR1luq9MQlSDu55J-7" value="&lt;b&gt;&lt;font style=&quot;font-size: 15px;&quot;&gt;Cleanse the Data by removing unwanted characters in the data&lt;/font&gt;&lt;/b&gt;" style="rounded=0;whiteSpace=wrap;html=1;fillColor=#d5e8d4;strokeColor=#82b366;" vertex="1" parent="1">
          <mxGeometry x="440" y="119" width="190" height="120" as="geometry" />
        </mxCell>
        <mxCell id="ql0hSR1luq9MQlSDu55J-16" style="edgeStyle=orthogonalEdgeStyle;rounded=0;orthogonalLoop=1;jettySize=auto;html=1;exitX=0.5;exitY=1;exitDx=0;exitDy=0;entryX=0.5;entryY=0;entryDx=0;entryDy=0;" edge="1" parent="1" source="ql0hSR1luq9MQlSDu55J-10" target="ql0hSR1luq9MQlSDu55J-12">
          <mxGeometry relative="1" as="geometry" />
        </mxCell>
        <mxCell id="ql0hSR1luq9MQlSDu55J-10" value="&lt;b&gt;&lt;font style=&quot;font-size: 15px;&quot;&gt;Create Player ID Column for accessing Player Rows&lt;/font&gt;&lt;/b&gt;" style="rounded=0;whiteSpace=wrap;html=1;fillColor=#ffe6cc;strokeColor=#d79b00;" vertex="1" parent="1">
          <mxGeometry x="670" y="119" width="170" height="120" as="geometry" />
        </mxCell>
        <mxCell id="ql0hSR1luq9MQlSDu55J-18" style="edgeStyle=orthogonalEdgeStyle;rounded=0;orthogonalLoop=1;jettySize=auto;html=1;exitX=0;exitY=0.5;exitDx=0;exitDy=0;entryX=1;entryY=0.5;entryDx=0;entryDy=0;" edge="1" parent="1" source="ql0hSR1luq9MQlSDu55J-12" target="ql0hSR1luq9MQlSDu55J-17">
          <mxGeometry relative="1" as="geometry" />
        </mxCell>
        <mxCell id="ql0hSR1luq9MQlSDu55J-12" value="&lt;b&gt;&lt;font style=&quot;font-size: 15px;&quot;&gt;Rename columns and convert into suitable datatypes&lt;/font&gt;&lt;/b&gt;" style="rounded=0;whiteSpace=wrap;html=1;fillColor=#ffe6cc;strokeColor=#d79b00;" vertex="1" parent="1">
          <mxGeometry x="670" y="289" width="170" height="120" as="geometry" />
        </mxCell>
        <mxCell id="ql0hSR1luq9MQlSDu55J-13" style="edgeStyle=orthogonalEdgeStyle;rounded=0;orthogonalLoop=1;jettySize=auto;html=1;exitX=0;exitY=0.5;exitDx=0;exitDy=0;entryX=-0.025;entryY=0.562;entryDx=0;entryDy=0;entryPerimeter=0;" edge="1" parent="1" source="ql0hSR1luq9MQlSDu55J-10" target="ql0hSR1luq9MQlSDu55J-10">
          <mxGeometry relative="1" as="geometry" />
        </mxCell>
        <mxCell id="ql0hSR1luq9MQlSDu55J-14" value="Columns are Player Attributes/Dimensions" style="text;html=1;strokeColor=none;fillColor=none;align=center;verticalAlign=middle;whiteSpace=wrap;rounded=0;" vertex="1" parent="1">
          <mxGeometry x="225" y="79" width="160" height="40" as="geometry" />
        </mxCell>
        <mxCell id="ql0hSR1luq9MQlSDu55J-15" value="Rows are Player Vectors" style="text;html=1;strokeColor=none;fillColor=none;align=center;verticalAlign=middle;whiteSpace=wrap;rounded=0;" vertex="1" parent="1">
          <mxGeometry x="220" y="239" width="160" height="40" as="geometry" />
        </mxCell>
        <mxCell id="ql0hSR1luq9MQlSDu55J-20" style="edgeStyle=orthogonalEdgeStyle;rounded=0;orthogonalLoop=1;jettySize=auto;html=1;exitX=0;exitY=0.5;exitDx=0;exitDy=0;entryX=1;entryY=0.5;entryDx=0;entryDy=0;" edge="1" parent="1" source="ql0hSR1luq9MQlSDu55J-17" target="ql0hSR1luq9MQlSDu55J-19">
          <mxGeometry relative="1" as="geometry" />
        </mxCell>
        <mxCell id="ql0hSR1luq9MQlSDu55J-17" value="&lt;b&gt;&lt;font style=&quot;font-size: 14px;&quot;&gt;Calculate Number of Not Outs using existing attributes.&lt;/font&gt;&lt;/b&gt;" style="rounded=0;whiteSpace=wrap;html=1;fillColor=#f8cecc;strokeColor=#b85450;" vertex="1" parent="1">
          <mxGeometry x="440" y="289" width="190" height="120" as="geometry" />
        </mxCell>
        <mxCell id="ql0hSR1luq9MQlSDu55J-22" style="edgeStyle=orthogonalEdgeStyle;rounded=0;orthogonalLoop=1;jettySize=auto;html=1;exitX=0;exitY=0.5;exitDx=0;exitDy=0;" edge="1" parent="1" source="ql0hSR1luq9MQlSDu55J-19">
          <mxGeometry relative="1" as="geometry">
            <mxPoint x="170" y="349" as="targetPoint" />
          </mxGeometry>
        </mxCell>
        <mxCell id="ql0hSR1luq9MQlSDu55J-19" value="&lt;b&gt;&lt;font style=&quot;font-size: 15px;&quot;&gt;Backup primitive attributes and drop them from main dataframe&lt;/font&gt;&lt;/b&gt;" style="rounded=0;whiteSpace=wrap;html=1;fillColor=#ffe6cc;strokeColor=#d79b00;" vertex="1" parent="1">
          <mxGeometry x="220" y="289" width="170" height="120" as="geometry" />
        </mxCell>
        <mxCell id="ql0hSR1luq9MQlSDu55J-24" style="edgeStyle=orthogonalEdgeStyle;rounded=0;orthogonalLoop=1;jettySize=auto;html=1;exitX=0.5;exitY=1;exitDx=0;exitDy=0;entryX=0.5;entryY=0;entryDx=0;entryDy=0;" edge="1" parent="1">
          <mxGeometry relative="1" as="geometry">
            <mxPoint x="90" y="488" as="sourcePoint" />
            <mxPoint x="90" y="518" as="targetPoint" />
          </mxGeometry>
        </mxCell>
        <mxCell id="ql0hSR1luq9MQlSDu55J-21" value="&lt;b&gt;&lt;font style=&quot;font-size: 15px;&quot;&gt;Normalize Batting and Bowling Attributes w.r.t Number of Innings and Matches Played&lt;/font&gt;&lt;/b&gt;" style="rounded=0;whiteSpace=wrap;html=1;fillColor=#f8cecc;strokeColor=#b85450;" vertex="1" parent="1">
          <mxGeometry x="10" y="289" width="160" height="120" as="geometry" />
        </mxCell>
        <mxCell id="ql0hSR1luq9MQlSDu55J-45" style="edgeStyle=orthogonalEdgeStyle;rounded=0;orthogonalLoop=1;jettySize=auto;html=1;exitX=1;exitY=0.5;exitDx=0;exitDy=0;entryX=0;entryY=0.5;entryDx=0;entryDy=0;" edge="1" parent="1" target="ql0hSR1luq9MQlSDu55J-25">
          <mxGeometry relative="1" as="geometry">
            <mxPoint x="170" y="489" as="sourcePoint" />
          </mxGeometry>
        </mxCell>
        <mxCell id="ql0hSR1luq9MQlSDu55J-23" value="&lt;b&gt;&lt;font style=&quot;font-size: 15px;&quot;&gt;Separate Relevant Batting and Bowling Features&lt;/font&gt;&lt;/b&gt;" style="rounded=0;whiteSpace=wrap;html=1;fillColor=#f8cecc;strokeColor=#b85450;" vertex="1" parent="1">
          <mxGeometry x="10" y="439" width="160" height="100" as="geometry" />
        </mxCell>
        <mxCell id="ql0hSR1luq9MQlSDu55J-50" style="edgeStyle=orthogonalEdgeStyle;rounded=0;orthogonalLoop=1;jettySize=auto;html=1;exitX=1;exitY=0.5;exitDx=0;exitDy=0;entryX=0;entryY=0.5;entryDx=0;entryDy=0;" edge="1" parent="1" source="ql0hSR1luq9MQlSDu55J-25" target="ql0hSR1luq9MQlSDu55J-32">
          <mxGeometry relative="1" as="geometry" />
        </mxCell>
        <mxCell id="ql0hSR1luq9MQlSDu55J-25" value="&lt;b&gt;&lt;font style=&quot;font-size: 15px;&quot;&gt;Create Dictionary for accessing Team Dataframes using Country Code&lt;/font&gt;&lt;/b&gt;" style="rounded=0;whiteSpace=wrap;html=1;fillColor=#ffe6cc;strokeColor=#d79b00;" vertex="1" parent="1">
          <mxGeometry x="210" y="439" width="170" height="100" as="geometry" />
        </mxCell>
        <mxCell id="ql0hSR1luq9MQlSDu55J-73" style="edgeStyle=orthogonalEdgeStyle;rounded=0;orthogonalLoop=1;jettySize=auto;html=1;exitX=1;exitY=0.5;exitDx=0;exitDy=0;entryX=0;entryY=0.5;entryDx=0;entryDy=0;" edge="1" parent="1" source="ql0hSR1luq9MQlSDu55J-27" target="ql0hSR1luq9MQlSDu55J-51">
          <mxGeometry relative="1" as="geometry" />
        </mxCell>
        <mxCell id="ql0hSR1luq9MQlSDu55J-27" value="&lt;b style=&quot;border-color: var(--border-color);&quot;&gt;&lt;font style=&quot;border-color: var(--border-color); font-size: 15px;&quot;&gt;Train/Fit KNNRegressor(X, Y) to&amp;nbsp;&lt;/font&gt;&lt;/b&gt;&lt;b style=&quot;border-color: var(--border-color);&quot;&gt;&lt;font style=&quot;border-color: var(--border-color); font-size: 15px;&quot;&gt;store the feature vectors and their associated target values&lt;/font&gt;&lt;/b&gt;&lt;b&gt;&lt;font style=&quot;font-size: 15px;&quot;&gt;&lt;br&gt;&lt;/font&gt;&lt;/b&gt;" style="rounded=0;whiteSpace=wrap;html=1;fillColor=#e1d5e7;strokeColor=#9673a6;" vertex="1" parent="1">
          <mxGeometry x="10" y="820" width="220" height="110" as="geometry" />
        </mxCell>
        <mxCell id="ql0hSR1luq9MQlSDu55J-48" style="edgeStyle=orthogonalEdgeStyle;rounded=0;orthogonalLoop=1;jettySize=auto;html=1;exitX=1;exitY=0.5;exitDx=0;exitDy=0;entryX=0.5;entryY=0;entryDx=0;entryDy=0;" edge="1" parent="1" source="ql0hSR1luq9MQlSDu55J-32" target="ql0hSR1luq9MQlSDu55J-35">
          <mxGeometry relative="1" as="geometry" />
        </mxCell>
        <mxCell id="ql0hSR1luq9MQlSDu55J-49" style="edgeStyle=orthogonalEdgeStyle;rounded=0;orthogonalLoop=1;jettySize=auto;html=1;exitX=0.5;exitY=1;exitDx=0;exitDy=0;entryX=0.5;entryY=0;entryDx=0;entryDy=0;" edge="1" parent="1" source="ql0hSR1luq9MQlSDu55J-32">
          <mxGeometry relative="1" as="geometry">
            <mxPoint x="135" y="589" as="targetPoint" />
          </mxGeometry>
        </mxCell>
        <mxCell id="ql0hSR1luq9MQlSDu55J-32" value="&lt;b style=&quot;font-size: 15px;&quot;&gt;Batting/Bowling &lt;br&gt;Recommendation&lt;/b&gt;" style="rhombus;whiteSpace=wrap;html=1;fillColor=#008a00;fontColor=#ffffff;strokeColor=#005700;" vertex="1" parent="1">
          <mxGeometry x="410" y="434" width="190" height="105" as="geometry" />
        </mxCell>
        <mxCell id="ql0hSR1luq9MQlSDu55J-72" style="edgeStyle=orthogonalEdgeStyle;rounded=0;orthogonalLoop=1;jettySize=auto;html=1;exitX=0.5;exitY=1;exitDx=0;exitDy=0;" edge="1" parent="1" source="ql0hSR1luq9MQlSDu55J-34" target="ql0hSR1luq9MQlSDu55J-27">
          <mxGeometry relative="1" as="geometry" />
        </mxCell>
        <mxCell id="ql0hSR1luq9MQlSDu55J-34" value="&lt;b&gt;&lt;font style=&quot;font-size: 15px;&quot;&gt;Input X Batting features and Y Player Labels or Player ID&lt;/font&gt;&lt;/b&gt;" style="shape=parallelogram;perimeter=parallelogramPerimeter;whiteSpace=wrap;html=1;fixedSize=1;fillColor=#1ba1e2;fontColor=#ffffff;strokeColor=#006EAF;" vertex="1" parent="1">
          <mxGeometry x="20" y="590" width="250" height="105" as="geometry" />
        </mxCell>
        <mxCell id="ql0hSR1luq9MQlSDu55J-35" value="&lt;b&gt;&lt;font style=&quot;font-size: 15px;&quot;&gt;Input X Bowling features and Y Player Labels or Player ID&lt;/font&gt;&lt;/b&gt;" style="shape=parallelogram;perimeter=parallelogramPerimeter;whiteSpace=wrap;html=1;fixedSize=1;fillColor=#1ba1e2;fontColor=#ffffff;strokeColor=#006EAF;" vertex="1" parent="1">
          <mxGeometry x="580" y="529" width="250" height="100" as="geometry" />
        </mxCell>
        <mxCell id="ql0hSR1luq9MQlSDu55J-38" value="&lt;b&gt;&lt;font style=&quot;font-size: 15px;&quot;&gt;Batting&lt;/font&gt;&lt;/b&gt;" style="text;html=1;strokeColor=none;fillColor=none;align=center;verticalAlign=middle;whiteSpace=wrap;rounded=0;" vertex="1" parent="1">
          <mxGeometry x="350" y="569" width="60" height="30" as="geometry" />
        </mxCell>
        <mxCell id="ql0hSR1luq9MQlSDu55J-39" value="&lt;b&gt;&lt;font style=&quot;font-size: 15px;&quot;&gt;Bowling&lt;/font&gt;&lt;/b&gt;" style="text;html=1;strokeColor=none;fillColor=none;align=center;verticalAlign=middle;whiteSpace=wrap;rounded=0;" vertex="1" parent="1">
          <mxGeometry x="630" y="459" width="60" height="30" as="geometry" />
        </mxCell>
        <mxCell id="ql0hSR1luq9MQlSDu55J-53" style="edgeStyle=orthogonalEdgeStyle;rounded=0;orthogonalLoop=1;jettySize=auto;html=1;exitX=1;exitY=0.5;exitDx=0;exitDy=0;entryX=0;entryY=0.5;entryDx=0;entryDy=0;" edge="1" parent="1" source="ql0hSR1luq9MQlSDu55J-51" target="ql0hSR1luq9MQlSDu55J-52">
          <mxGeometry relative="1" as="geometry" />
        </mxCell>
        <mxCell id="ql0hSR1luq9MQlSDu55J-51" value="&lt;b&gt;&lt;font style=&quot;font-size: 15px;&quot;&gt;Retrieve Query Player Features&lt;/font&gt;&lt;/b&gt;" style="rounded=0;whiteSpace=wrap;html=1;fillColor=#6a00ff;fontColor=#ffffff;strokeColor=#3700CC;" vertex="1" parent="1">
          <mxGeometry x="260" y="820" width="120" height="110" as="geometry" />
        </mxCell>
        <mxCell id="ql0hSR1luq9MQlSDu55J-55" style="edgeStyle=orthogonalEdgeStyle;rounded=0;orthogonalLoop=1;jettySize=auto;html=1;exitX=1;exitY=0.5;exitDx=0;exitDy=0;entryX=0;entryY=0.5;entryDx=0;entryDy=0;" edge="1" parent="1" source="ql0hSR1luq9MQlSDu55J-52" target="ql0hSR1luq9MQlSDu55J-54">
          <mxGeometry relative="1" as="geometry" />
        </mxCell>
        <mxCell id="ql0hSR1luq9MQlSDu55J-52" value="&lt;b&gt;&lt;font style=&quot;font-size: 15px;&quot;&gt;KNNRegressor calculates Euclidean distances of Query Player Vector from all the Other vectors&amp;nbsp; &amp;nbsp;&lt;/font&gt;&lt;/b&gt;" style="rounded=0;whiteSpace=wrap;html=1;fillColor=#6a00ff;fontColor=#ffffff;strokeColor=#3700CC;" vertex="1" parent="1">
          <mxGeometry x="430" y="822.5" width="200" height="105" as="geometry" />
        </mxCell>
        <mxCell id="ql0hSR1luq9MQlSDu55J-68" style="edgeStyle=orthogonalEdgeStyle;rounded=0;orthogonalLoop=1;jettySize=auto;html=1;exitX=0.5;exitY=1;exitDx=0;exitDy=0;" edge="1" parent="1" source="ql0hSR1luq9MQlSDu55J-54" target="ql0hSR1luq9MQlSDu55J-64">
          <mxGeometry relative="1" as="geometry" />
        </mxCell>
        <mxCell id="ql0hSR1luq9MQlSDu55J-54" value="&lt;b&gt;&lt;font style=&quot;font-size: 15px;&quot;&gt;Returns k indices of vectors which have the lowest distance from the Query Player Vector&lt;/font&gt;&lt;/b&gt;" style="rounded=0;whiteSpace=wrap;html=1;fillColor=#6a00ff;fontColor=#ffffff;strokeColor=#3700CC;" vertex="1" parent="1">
          <mxGeometry x="650" y="820" width="190" height="110" as="geometry" />
        </mxCell>
        <mxCell id="ql0hSR1luq9MQlSDu55J-57" value="" style="endArrow=none;dashed=1;html=1;rounded=0;" edge="1" parent="1">
          <mxGeometry width="50" height="50" relative="1" as="geometry">
            <mxPoint y="799" as="sourcePoint" />
            <mxPoint x="850" y="799" as="targetPoint" />
            <Array as="points">
              <mxPoint x="365" y="799" />
              <mxPoint x="605" y="799" />
            </Array>
          </mxGeometry>
        </mxCell>
        <mxCell id="ql0hSR1luq9MQlSDu55J-58" value="&lt;b&gt;&lt;font style=&quot;font-size: 15px;&quot;&gt;KNN Regressor&lt;/font&gt;&lt;/b&gt;" style="text;html=1;strokeColor=none;fillColor=none;align=center;verticalAlign=middle;whiteSpace=wrap;rounded=0;" vertex="1" parent="1">
          <mxGeometry x="235" y="769" width="310" height="30" as="geometry" />
        </mxCell>
        <mxCell id="ql0hSR1luq9MQlSDu55J-59" value="" style="endArrow=none;dashed=1;html=1;rounded=0;" edge="1" parent="1">
          <mxGeometry width="50" height="50" relative="1" as="geometry">
            <mxPoint y="950" as="sourcePoint" />
            <mxPoint x="850" y="950" as="targetPoint" />
            <Array as="points">
              <mxPoint x="360" y="950" />
              <mxPoint x="600" y="950" />
            </Array>
          </mxGeometry>
        </mxCell>
        <mxCell id="ql0hSR1luq9MQlSDu55J-69" style="edgeStyle=orthogonalEdgeStyle;rounded=0;orthogonalLoop=1;jettySize=auto;html=1;exitX=0;exitY=0.5;exitDx=0;exitDy=0;entryX=1;entryY=0.5;entryDx=0;entryDy=0;" edge="1" parent="1" source="ql0hSR1luq9MQlSDu55J-64" target="ql0hSR1luq9MQlSDu55J-66">
          <mxGeometry relative="1" as="geometry" />
        </mxCell>
        <mxCell id="ql0hSR1luq9MQlSDu55J-64" value="&lt;b&gt;&lt;font style=&quot;font-size: 14px;&quot;&gt;Plot Radar Chart for Query Player and K Recommended Players&lt;/font&gt;&lt;/b&gt;" style="rounded=0;whiteSpace=wrap;html=1;fillColor=#f0a30a;fontColor=#000000;strokeColor=#BD7000;" vertex="1" parent="1">
          <mxGeometry x="630" y="999" width="205" height="80" as="geometry" />
        </mxCell>
        <mxCell id="ql0hSR1luq9MQlSDu55J-66" value="End" style="ellipse;whiteSpace=wrap;html=1;fillColor=#fa6800;fontColor=#000000;strokeColor=#C73500;" vertex="1" parent="1">
          <mxGeometry x="400" y="999" width="120" height="80" as="geometry" />
        </mxCell>
        <mxCell id="ql0hSR1luq9MQlSDu55J-70" value="" style="edgeStyle=orthogonalEdgeStyle;rounded=0;orthogonalLoop=1;jettySize=auto;html=1;" edge="1" parent="1" source="ql0hSR1luq9MQlSDu55J-67" target="ql0hSR1luq9MQlSDu55J-3">
          <mxGeometry relative="1" as="geometry" />
        </mxCell>
        <mxCell id="ql0hSR1luq9MQlSDu55J-67" value="Start" style="ellipse;whiteSpace=wrap;html=1;fillColor=#fa6800;fontColor=#000000;strokeColor=#C73500;" vertex="1" parent="1">
          <mxGeometry x="30" y="10" width="120" height="80" as="geometry" />
        </mxCell>
        <mxCell id="ql0hSR1luq9MQlSDu55J-71" style="edgeStyle=orthogonalEdgeStyle;rounded=0;orthogonalLoop=1;jettySize=auto;html=1;exitX=0.25;exitY=1;exitDx=0;exitDy=0;entryX=0.806;entryY=-0.016;entryDx=0;entryDy=0;entryPerimeter=0;" edge="1" parent="1" source="ql0hSR1luq9MQlSDu55J-35" target="ql0hSR1luq9MQlSDu55J-27">
          <mxGeometry relative="1" as="geometry" />
        </mxCell>
      </root>
    </mxGraphModel>
  </diagram>
</mxfile>
